# xmcd
#
# Track frame offsets: 
#        150
#        13940
#        28500
#        46125
#        61430
#        73030
#        90222
#        109027
#        122175
#        137445
#
# Disc length: 2043 seconds
#
# Revision: 2
# Processed by: cddbd v1.5.2PL0 Copyright (c) Steve Scherf et al.
# Submitted via: ExactAudioCopy v0.95b4
#
DISCID=7e07f90a
DTITLE=Deryl Dodd - One Ride In Vegas
DYEAR=1996
DGENRE=
TTITLE0=Friends Don't Drive Friends...
TTITLE1=That's How I Got To Memphis
TTITLE2=Movin' Out To The Country
TTITLE3=Stayin' Is The Only Way To Go
TTITLE4=Somethin' Like That
TTITLE5=That Ol' World (Keeps Turning On Me)
TTITLE6=One Ride In Vegas
TTITLE7=13 MWZ
TTITLE8=I Can Love You
TTITLE9=That's Just Me
EXTD=
EXTT0=
EXTT1=
EXTT2=
EXTT3=
EXTT4=
EXTT5=
EXTT6=
EXTT7=
EXTT8=
EXTT9=
PLAYORDER=
